<svg width="20" height="21" viewBox="0 0 20 21" fill="none" xmlns="http://www.w3.org/2000/svg">
<path d="M10 15.5C9.45 15.5 9 15.05 9 14.5V10.5C9 9.95 9.45 9.5 10 9.5C10.55 9.5 11 9.95 11 10.5V14.5C11 15.05 10.55 15.5 10 15.5ZM10.01 20.5C15.53 20.5 20 16.02 20 10.5C20 4.98 15.53 0.5 10.01 0.5C4.48 0.5 0 4.98 0 10.5C0 16.02 4.48 20.5 10.01 20.5ZM10 2.5C14.42 2.5 18 6.08 18 10.5C18 14.92 14.42 18.5 10 18.5C5.58 18.5 2 14.92 2 10.5C2 6.08 5.58 2.5 10 2.5ZM9 5.5L11 5.5V7.5L9 7.5V5.5Z" fill="#2A3DF0"/>
</svg>
